<svg width="200" height="200" viewBox="0 0 200 200" xmlns="http://www.w3.org/2000/svg">
  <!-- Background gradient circle -->
  <defs>
    <linearGradient id="bgGradient" x1="0%" y1="0%" x2="100%" y2="100%">
      <stop offset="0%" style="stop-color:#00e5ff;stop-opacity:1" />
      <stop offset="100%" style="stop-color:#0091ea;stop-opacity:1" />
    </linearGradient>
    
    <linearGradient id="faceGradient" x1="0%" y1="0%" x2="100%" y2="100%">
      <stop offset="0%" style="stop-color:#1a1a2e;stop-opacity:1" />
      <stop offset="100%" style="stop-color:#16213e;stop-opacity:1" />
    </linearGradient>
    
    <linearGradient id="glowGradient" x1="0%" y1="0%" x2="100%" y2="100%">
      <stop offset="0%" style="stop-color:#00e5ff;stop-opacity:0.8" />
      <stop offset="100%" style="stop-color:#00b8d4;stop-opacity:0.4" />
    </linearGradient>
    
    <filter id="glow">
      <feGaussianBlur stdDeviation="3" result="coloredBlur"/>
      <feMerge>
        <feMergeNode in="coloredBlur"/>
        <feMergeNode in="SourceGraphic"/>
      </feMerge>
    </filter>
  </defs>
  
  <!-- Outer glow circle -->
  <circle cx="100" cy="100" r="95" fill="url(#bgGradient)" opacity="0.2"/>
  
  <!-- Main circle background -->
  <circle cx="100" cy="100" r="85" fill="url(#faceGradient)"/>
  
  <!-- Circuit pattern decoration -->
  <path d="M 60 60 L 80 60 L 80 50 M 80 60 L 80 70" stroke="#00e5ff" stroke-width="2" fill="none" opacity="0.5"/>
  <circle cx="80" cy="50" r="3" fill="#00e5ff" opacity="0.7"/>
  <circle cx="80" cy="70" r="3" fill="#00e5ff" opacity="0.7"/>
  
  <path d="M 140 60 L 120 60 L 120 50 M 120 60 L 120 70" stroke="#00e5ff" stroke-width="2" fill="none" opacity="0.5"/>
  <circle cx="120" cy="50" r="3" fill="#00e5ff" opacity="0.7"/>
  <circle cx="120" cy="70" r="3" fill="#00e5ff" opacity="0.7"/>
  
  <!-- AI Face - Modern geometric design -->
  <!-- Left eye -->
  <g filter="url(#glow)">
    <path d="M 65 85 L 85 85 L 80 95 L 70 95 Z" fill="url(#glowGradient)"/>
    <circle cx="75" cy="90" r="4" fill="#00e5ff"/>
  </g>
  
  <!-- Right eye -->
  <g filter="url(#glow)">
    <path d="M 115 85 L 135 85 L 130 95 L 120 95 Z" fill="url(#glowGradient)"/>
    <circle cx="125" cy="90" r="4" fill="#00e5ff"/>
  </g>
  
  <!-- Nose/Center indicator -->
  <rect x="97" y="100" width="6" height="15" rx="3" fill="#00e5ff" opacity="0.6"/>
  
  <!-- Mouth - Digital wave pattern -->
  <path d="M 70 125 Q 100 135 130 125" stroke="#00e5ff" stroke-width="3" fill="none" filter="url(#glow)"/>
  <path d="M 70 125 Q 100 130 130 125" stroke="#00b8d4" stroke-width="2" fill="none" opacity="0.5"/>
  
  <!-- Decorative elements - Neural network nodes -->
  <circle cx="50" cy="100" r="2" fill="#00e5ff" opacity="0.6"/>
  <circle cx="150" cy="100" r="2" fill="#00e5ff" opacity="0.6"/>
  <circle cx="100" cy="50" r="2" fill="#00e5ff" opacity="0.6"/>
  <circle cx="100" cy="150" r="2" fill="#00e5ff" opacity="0.6"/>
  
  <!-- Connection lines -->
  <line x1="50" y1="100" x2="65" y2="90" stroke="#00e5ff" stroke-width="1" opacity="0.3"/>
  <line x1="150" y1="100" x2="135" y2="90" stroke="#00e5ff" stroke-width="1" opacity="0.3"/>
  <line x1="100" y1="50" x2="100" y2="80" stroke="#00e5ff" stroke-width="1" opacity="0.3"/>
  <line x1="100" y1="150" x2="100" y2="130" stroke="#00e5ff" stroke-width="1" opacity="0.3"/>
  
  <!-- Outer ring with pulse effect -->
  <circle cx="100" cy="100" r="85" fill="none" stroke="url(#bgGradient)" stroke-width="2" opacity="0.6"/>
  <circle cx="100" cy="100" r="90" fill="none" stroke="#00e5ff" stroke-width="1" opacity="0.3"/>
</svg>
